<?xml version="1.0" standalone="no"?>
<!DOCTYPE svg PUBLIC "-//W3C//DTD SVG 20010904//EN"
 "http://www.w3.org/TR/2001/REC-SVG-20010904/DTD/svg10.dtd">
<svg version="1.0" xmlns="http://www.w3.org/2000/svg"
 width="250.000000pt" height="250.000000pt" viewBox="0 0 250.000000 250.000000"
 preserveAspectRatio="xMidYMid meet">

<g transform="translate(0.000000,250.000000) scale(0.100000,-0.100000)"
fill="#000000" stroke="none">
<path d="M230 2322 c-61 -30 -70 -63 -70 -255 0 -259 8 -268 235 -275 160 -5
241 7 273 41 33 35 45 115 40 271 -7 228 -16 236 -275 236 -140 0 -174 -3
-203 -18z m380 -72 c21 -13 22 -342 2 -362 -20 -20 -349 -19 -362 2 -15 23
-13 343 2 358 15 15 335 17 358 2z"/>
<path d="M368 2184 c-44 -8 -53 -29 -52 -122 0 -106 7 -112 116 -112 106 0
118 12 118 118 0 102 -7 111 -90 116 -36 2 -77 2 -92 0z"/>
<path d="M764 2327 c-3 -8 -4 -41 -2 -73 3 -59 3 -59 35 -62 26 -3 34 -9 39
-30 10 -49 13 -52 43 -52 26 0 30 -4 33 -32 3 -29 7 -34 38 -38 31 -4 36 -9
40 -40 4 -27 10 -36 29 -38 35 -5 43 9 43 78 0 66 -8 80 -49 80 -17 0 -22 7
-25 33 -3 28 -7 32 -35 35 -37 4 -41 13 -45 97 l-3 50 -68 3 c-51 2 -69 -1
-73 -11z"/>
<path d="M992 2303 c3 -33 7 -38 30 -41 27 -3 47 18 42 46 -1 6 -2 17 -3 22 0
6 -17 10 -37 10 -35 0 -35 -1 -32 -37z"/>
<path d="M1147 2334 c-4 -4 -7 -20 -7 -35 0 -27 15 -39 51 -39 17 0 20 -6 17
-32 -3 -28 -8 -34 -33 -38 -30 -5 -30 -5 -30 -75 0 -70 0 -70 29 -73 31 -4 46
10 46 46 0 20 4 22 64 22 71 0 92 14 82 54 -5 19 -14 25 -39 28 -28 3 -32 7
-35 36 -3 31 -2 32 32 32 31 0 36 -3 36 -22 0 -36 15 -50 46 -46 25 2 29 8 32
36 3 29 6 32 38 32 32 0 34 -2 34 -34 0 -32 -3 -35 -32 -38 -28 -3 -34 -7 -36
-32 -4 -31 10 -46 46 -46 18 0 22 -5 22 -34 0 -32 -3 -35 -32 -38 l-33 -3 0
-70 c0 -70 0 -70 30 -75 23 -4 31 -11 33 -30 5 -36 22 -51 51 -48 21 2 27 9
31 38 4 31 9 36 40 40 29 4 36 10 38 31 3 29 -12 46 -48 51 -20 2 -25 9 -25
33 0 27 4 31 35 35 27 4 36 10 38 28 5 30 -13 50 -46 54 -27 3 -27 3 -32 108
l-5 105 -216 3 c-118 1 -218 -1 -222 -4z"/>
<path d="M1665 2320 c-10 -32 12 -62 43 -58 23 3 27 8 30 41 3 36 3 37 -32 37
-26 0 -36 -5 -41 -20z"/>
<path d="M1863 2325 c-62 -27 -68 -48 -68 -250 0 -280 0 -280 270 -280 270 0
270 0 270 280 0 263 -3 265 -272 265 -120 -1 -177 -5 -200 -15z m381 -81 c22
-22 24 -320 2 -350 -13 -17 -28 -19 -181 -19 -153 0 -168 2 -181 19 -17 24
-20 316 -4 347 10 18 23 19 180 19 140 0 171 -3 184 -16z"/>
<path d="M2000 2183 c-45 -9 -50 -20 -50 -113 0 -113 7 -120 117 -120 106 0
113 7 113 122 0 61 -4 89 -14 97 -15 13 -127 22 -166 14z"/>
<path d="M1072 2262 c-8 -5 -12 -22 -10 -38 3 -26 7 -29 38 -29 33 0 35 2 35
35 0 30 -4 35 -25 38 -14 1 -31 -2 -38 -6z"/>
<path d="M1664 2165 c-8 -33 12 -57 45 -53 22 3 26 9 29 41 3 36 3 37 -32 37
-30 0 -37 -4 -42 -25z"/>
<path d="M772 2108 c-8 -8 -12 -56 -12 -150 l0 -138 25 -6 c41 -10 55 10 55
82 l0 63 33 3 c29 3 32 6 32 38 0 31 -3 35 -30 40 -23 4 -31 11 -33 30 -7 46
-42 66 -70 38z"/>
<path d="M1217 2034 c-12 -12 -8 -51 7 -64 8 -6 25 -10 38 -8 19 2 23 9 23 38
0 32 -3 35 -30 38 -17 2 -34 0 -38 -4z"/>
<path d="M1664 2015 c-8 -33 12 -57 45 -53 22 3 26 8 26 38 0 32 -3 35 -32 38
-28 3 -33 -1 -39 -23z"/>
<path d="M922 1958 c-8 -8 -12 -56 -12 -149 0 -155 5 -147 -84 -148 -27 0 -53
-4 -58 -9 -5 -5 -8 -38 -6 -73 l3 -64 70 0 c67 0 70 1 73 25 5 34 19 48 50 52
l27 3 3 174 c3 178 -2 201 -37 201 -9 0 -22 -5 -29 -12z"/>
<path d="M1071 1956 c-8 -9 -11 -48 -9 -112 l3 -99 110 0 110 0 0 70 c0 70 0
70 -29 73 -31 4 -46 -10 -46 -44 0 -25 -24 -37 -52 -28 -15 4 -18 13 -16 37 3
27 8 33 33 35 45 6 59 37 29 66 -20 21 -117 22 -133 2z"/>
<path d="M1303 1963 c-7 -2 -13 -20 -13 -39 0 -35 1 -35 38 -32 30 2 38 7 40
26 6 40 -26 61 -65 45z"/>
<path d="M1367 1884 c-12 -12 -8 -51 7 -64 8 -6 25 -10 38 -8 19 2 23 9 23 38
0 32 -3 35 -30 38 -17 2 -34 0 -38 -4z"/>
<path d="M1664 1865 c-8 -33 12 -57 45 -53 22 3 26 8 26 38 0 32 -3 35 -32 38
-28 3 -33 -1 -39 -23z"/>
<path d="M1594 1797 c-3 -8 -4 -41 -2 -73 3 -59 3 -59 36 -62 29 -3 32 -6 32
-37 0 -31 -3 -34 -32 -37 -30 -3 -33 -6 -33 -38 0 -32 3 -35 33 -38 l33 -3 -3
-72 c-3 -71 -3 -72 -33 -77 -22 -4 -31 -11 -33 -28 -6 -39 14 -52 84 -52 l63
0 3 -32 c3 -30 6 -33 38 -33 l35 0 0 70 0 70 -35 5 c-29 4 -36 10 -38 32 -2
18 3 30 17 37 28 16 50 4 59 -33 6 -24 15 -32 38 -36 22 -4 30 -12 34 -34 6
-37 33 -55 58 -40 12 8 18 27 20 68 3 64 -7 83 -46 88 -23 2 -27 8 -27 33 0
28 3 30 35 30 32 0 35 -3 38 -32 4 -38 -6 -36 176 -35 60 1 113 5 118 10 5 5
8 38 6 73 -3 63 -4 64 -33 67 -33 4 -45 16 -45 50 0 19 -5 22 -35 22 l-35 0 0
-70 c0 -66 -1 -70 -25 -76 -31 -8 -53 9 -57 44 -3 26 -6 27 -73 32 l-70 5 -3
33 c-3 29 -6 32 -40 33 -20 1 -49 0 -63 -1 -29 -1 -46 14 -51 50 -2 20 -10 26
-35 28 -28 3 -32 7 -35 35 -3 28 -7 32 -36 35 -21 2 -34 -2 -38 -11z m218
-232 c14 -32 -5 -57 -41 -53 -18 2 -27 10 -29 26 -7 50 49 72 70 27z"/>
<path d="M385 1721 c-3 -12 -3 -30 0 -42 5 -16 14 -19 38 -17 29 3 32 6 32 38
0 32 -3 35 -32 38 -24 2 -33 -1 -38 -17z"/>
<path d="M614 1726 c-3 -8 -4 -25 -2 -38 2 -19 9 -23 38 -23 33 0 35 2 35 35
0 32 -3 35 -33 38 -21 2 -34 -2 -38 -12z"/>
<path d="M1294 1726 c-3 -8 -4 -25 -2 -38 3 -22 6 -23 107 -23 88 0 106 3 115
18 8 12 8 22 0 35 -15 24 -211 31 -220 8z"/>
<path d="M1897 1734 c-4 -4 -7 -20 -7 -35 0 -36 17 -41 135 -37 l90 3 0 35 0
35 -106 3 c-58 1 -108 -1 -112 -4z"/>
<path d="M2194 1715 c-8 -31 9 -53 44 -57 22 -2 28 -9 30 -35 3 -30 6 -33 38
-33 l35 0 -3 73 -3 72 -67 3 c-65 3 -68 2 -74 -23z"/>
<path d="M315 1648 c-2 -7 -6 -40 -7 -73 -3 -59 -3 -60 -33 -60 -25 0 -31 4
-33 27 -4 33 -24 51 -54 46 -21 -3 -23 -8 -26 -75 l-3 -73 36 -1 c19 0 71 -1
115 -1 159 0 148 -2 152 34 2 27 8 34 32 38 37 6 55 33 40 58 -8 13 -27 18
-77 20 l-66 3 -3 32 c-3 28 -7 32 -36 35 -20 2 -34 -2 -37 -10z"/>
<path d="M534 1646 c-13 -33 0 -51 39 -54 36 -3 37 -3 37 32 0 34 -2 36 -35
36 -22 0 -38 -6 -41 -14z"/>
<path d="M614 1576 c-3 -8 -4 -25 -2 -38 2 -19 9 -23 38 -23 33 0 35 2 35 35
0 32 -3 35 -33 38 -21 2 -34 -2 -38 -12z"/>
<path d="M536 1495 c-3 -9 -6 -25 -6 -35 0 -14 -9 -20 -32 -22 -30 -3 -33 -6
-33 -38 0 -32 3 -35 33 -38 29 -3 32 -6 32 -38 0 -34 -1 -35 -32 -32 -28 3
-34 8 -38 33 -4 24 -11 31 -34 33 -37 4 -46 -10 -46 -73 0 -61 7 -72 45 -77
l30 -3 0 -70 0 -70 -107 -3 c-105 -3 -108 -3 -114 -27 -8 -31 9 -53 44 -57 26
-3 27 -6 32 -73 5 -64 7 -70 28 -73 40 -6 52 14 52 84 l0 64 34 0 c32 0 35 -3
38 -32 3 -30 6 -33 38 -33 l35 0 5 70 5 70 70 5 c64 5 70 7 73 28 6 40 -14 52
-84 52 l-64 0 0 35 0 35 144 0 c153 0 156 -1 156 -50 0 -21 29 -34 54 -24 14
5 16 18 14 78 l-3 71 -145 5 -145 5 0 30 0 30 145 5 145 5 0 35 0 35 -145 5
-145 5 -5 30 c-4 25 -10 31 -36 33 -22 2 -33 -2 -38 -13z"/>
<path d="M1195 1411 c-38 -16 -57 -50 -86 -158 -16 -59 -29 -109 -29 -110 0
-2 55 -3 123 -3 106 0 125 3 147 20 l25 20 -117 0 c-84 0 -118 3 -118 12 0 32
35 136 53 156 18 19 30 22 104 22 l83 0 -6 -27 c-4 -16 -13 -48 -20 -73 -18
-59 -18 -60 9 -60 20 0 25 11 48 99 15 55 24 102 21 105 -8 9 -215 6 -237 -3z"/>
<path d="M167 1354 c-13 -14 -7 -62 9 -68 23 -9 107 -7 122 3 8 5 12 21 10 37
-3 28 -4 29 -68 32 -36 2 -69 0 -73 -4z"/>
<path d="M2047 1354 c-12 -13 -8 -51 8 -64 9 -7 25 -10 40 -6 22 6 26 11 23
39 -3 28 -7 32 -33 35 -17 2 -34 0 -38 -4z"/>
<path d="M2194 1347 c-3 -8 -4 -41 -2 -73 l3 -59 35 -5 c31 -4 35 -8 35 -35 0
-25 -4 -31 -27 -33 -43 -5 -49 -21 -46 -128 l3 -99 73 -3 72 -3 -2 188 -3 188
-32 3 c-28 3 -32 7 -35 35 -3 28 -7 32 -36 35 -21 2 -34 -2 -38 -11z"/>
<path d="M1320 1335 c0 -8 4 -15 10 -15 5 0 7 7 4 15 -4 8 -8 15 -10 15 -2 0
-4 -7 -4 -15z"/>
<path d="M1185 1280 c-19 -62 -17 -77 9 -67 15 6 40 102 30 118 -12 19 -22 7
-39 -51z"/>
<path d="M1236 1257 c-9 -35 -7 -47 8 -47 19 0 28 40 11 56 -11 11 -14 10 -19
-9z"/>
<path d="M1664 1185 c-8 -33 12 -57 45 -53 22 3 26 9 29 41 3 36 3 37 -32 37
-30 0 -37 -4 -42 -25z"/>
<path d="M1897 1204 c-4 -4 -7 -20 -7 -35 0 -31 26 -45 61 -34 16 5 19 14 17
38 -3 27 -7 32 -33 35 -17 2 -34 0 -38 -4z"/>
<path d="M164 1126 c-3 -8 -4 -25 -2 -38 2 -18 10 -24 35 -26 28 -3 33 1 39
23 4 15 1 31 -6 40 -16 19 -59 19 -66 1z"/>
<path d="M772 1128 c-7 -7 -12 -39 -12 -75 l0 -63 -64 0 c-70 0 -90 -12 -84
-52 2 -18 10 -24 35 -26 26 -3 34 -9 39 -30 11 -50 13 -53 41 -50 23 2 29 9
33 38 l5 35 70 5 70 5 0 70 c0 70 0 70 -30 75 -23 4 -31 11 -33 30 -7 46 -42
66 -70 38z"/>
<path d="M1594 1126 c-3 -8 -4 -25 -2 -38 2 -19 9 -23 38 -23 29 0 36 4 38 23
2 13 -2 30 -8 38 -16 18 -59 18 -66 0z"/>
<path d="M1752 1131 c-8 -5 -12 -21 -10 -37 3 -26 7 -29 38 -29 29 0 36 4 38
23 6 41 -31 65 -66 43z"/>
<path d="M1070 1107 c0 -6 3 -8 6 -4 4 3 13 0 21 -8 17 -18 37 -20 27 -4 -3 6
-1 15 6 19 8 5 -2 8 -24 8 -20 0 -36 -5 -36 -11z"/>
<path d="M1154 1108 c-14 -21 35 -32 64 -14 7 4 19 3 27 -4 9 -7 20 -8 32 -2
10 5 24 7 31 5 6 -3 12 3 12 12 0 14 -12 16 -81 14 -44 -2 -82 -6 -85 -11z"/>
<path d="M1330 1098 c0 -12 1 -19 3 -17 1 2 9 12 16 22 12 14 11 17 -3 17 -10
0 -16 -8 -16 -22z"/>
<path d="M1824 1046 c-3 -8 -4 -25 -2 -38 2 -18 10 -24 36 -26 l32 -3 0 -69
c0 -77 -1 -78 -82 -79 -50 0 -64 10 -70 49 -3 24 -6 25 -73 25 l-70 0 0 -70
c0 -70 0 -70 30 -75 l30 -5 3 -148 3 -148 -33 3 c-28 3 -34 8 -38 33 -4 24
-11 31 -34 33 -31 4 -46 -10 -46 -45 0 -20 -6 -22 -66 -25 -74 -3 -99 -21 -78
-55 8 -14 27 -19 78 -21 66 -3 66 -3 66 -33 0 -30 3 -33 52 -43 21 -5 27 -13
30 -39 3 -28 7 -32 36 -35 23 -2 32 -8 32 -22 0 -37 12 -50 45 -50 31 0 34 3
37 33 3 28 7 33 38 37 27 4 36 10 38 28 5 30 -13 50 -46 54 -23 2 -27 8 -27
33 0 30 0 30 70 35 68 5 70 6 75 34 6 37 33 55 58 40 13 -8 18 -27 20 -78 l3
-66 34 0 c31 0 34 3 37 33 3 29 6 32 38 32 32 0 35 -3 38 -32 3 -30 6 -33 37
-33 30 0 33 3 37 37 2 20 2 52 -1 72 -6 32 -10 36 -38 39 -28 3 -32 7 -35 35
-2 25 -8 33 -28 35 -32 5 -50 20 -50 42 0 26 26 43 54 36 19 -5 25 -14 28 -39
3 -28 6 -32 33 -32 25 0 31 4 33 27 4 31 18 45 52 50 19 2 26 10 30 33 4 24
11 31 35 35 30 5 30 6 33 78 l3 72 -111 0 -111 0 3 -32 c3 -28 8 -34 33 -38
25 -4 31 -10 33 -37 3 -35 -5 -39 -77 -41 -60 -2 -71 11 -71 83 0 61 -2 65
-22 65 -43 0 -47 11 -50 120 l-3 105 -68 3 c-52 2 -69 0 -73 -12z m140 -302
c11 -29 7 -189 -6 -202 -13 -13 -173 -17 -202 -6 -13 5 -16 24 -16 108 0 57 3
106 7 109 3 4 52 7 109 7 84 0 103 -3 108 -16z"/>
<path d="M1843 682 c-19 -3 -23 -10 -23 -38 0 -32 2 -34 35 -34 33 0 35 2 35
34 0 36 -11 44 -47 38z"/>
<path d="M167 983 c-4 -3 -7 -21 -7 -40 0 -31 2 -33 35 -33 29 0 36 4 41 25 4
15 1 32 -6 40 -13 15 -51 20 -63 8z"/>
<path d="M1752 981 c-8 -5 -12 -21 -10 -37 3 -26 7 -29 38 -29 29 0 36 4 38
23 6 41 -31 65 -66 43z"/>
<path d="M2051 976 c-19 -22 -10 -126 12 -140 32 -20 52 4 55 68 3 61 -8 86
-38 86 -10 0 -23 -6 -29 -14z"/>
<path d="M917 904 c-4 -4 -7 -53 -7 -110 0 -108 -3 -114 -51 -114 -15 0 -19
-7 -19 -35 l0 -36 73 3 72 3 3 32 c3 27 7 32 34 35 25 2 33 9 42 38 11 35 11
35 78 38 54 2 68 6 73 21 8 27 -5 51 -29 51 -32 0 -44 12 -48 45 l-3 30 -106
3 c-58 1 -108 -1 -112 -4z"/>
<path d="M1217 904 c-12 -12 -8 -51 7 -64 8 -6 25 -10 38 -8 19 2 23 9 23 38
0 32 -3 35 -30 38 -17 2 -34 0 -38 -4z"/>
<path d="M1444 896 c-12 -31 0 -61 27 -64 31 -4 52 18 47 50 -2 18 -10 24 -36
26 -21 2 -34 -2 -38 -12z"/>
<path d="M578 832 c-39 -3 -54 -24 -42 -56 5 -14 18 -16 78 -14 l71 3 0 30 c0
26 -4 30 -35 35 -19 3 -52 4 -72 2z"/>
<path d="M1327 832 c-36 -3 -38 -5 -35 -35 2 -27 8 -33 33 -37 25 -4 31 -10
33 -36 2 -22 -2 -33 -14 -38 -30 -12 -53 3 -56 37 -3 27 -8 33 -32 35 -31 4
-46 -10 -46 -44 0 -23 -17 -34 -51 -34 -18 0 -20 -6 -17 -72 l3 -73 70 -5 c68
-5 70 -6 75 -35 4 -24 11 -31 34 -33 31 -4 46 10 46 45 0 20 6 22 66 25 51 2
70 7 78 20 15 25 -3 52 -40 58 -24 4 -29 10 -29 35 0 25 5 31 29 35 60 10 60
70 0 80 -24 4 -30 11 -32 37 -3 28 -7 31 -40 35 -20 1 -54 2 -75 0z"/>
<path d="M160 795 c0 -36 0 -36 38 -33 34 3 37 6 37 33 0 27 -3 30 -37 33 -38
3 -38 3 -38 -33z"/>
<path d="M384 816 c-13 -33 0 -51 39 -54 36 -3 37 -3 37 32 0 34 -2 36 -35 36
-22 0 -38 -6 -41 -14z"/>
<path d="M767 824 c-4 -4 -7 -36 -7 -70 0 -60 2 -64 25 -70 42 -10 56 11 53
80 -3 60 -4 61 -33 64 -17 2 -34 0 -38 -4z"/>
<path d="M253 701 c-80 -20 -93 -56 -93 -266 0 -267 3 -270 265 -270 279 0
280 1 280 265 0 271 -2 274 -255 277 -91 1 -180 -2 -197 -6z m353 -85 c17 -13
19 -28 19 -181 0 -153 -2 -168 -19 -181 -30 -22 -328 -20 -350 2 -13 13 -16
44 -16 184 0 150 2 170 18 179 28 17 324 14 348 -3z"/>
<path d="M329 533 c-9 -11 -14 -43 -14 -98 0 -111 4 -115 115 -115 113 0 120
7 120 117 0 106 -7 113 -122 113 -67 0 -88 -4 -99 -17z"/>
<path d="M1524 676 c-9 -7 -14 -22 -12 -37 2 -20 9 -25 41 -27 36 -3 37 -2 37
31 0 29 -4 35 -25 39 -14 3 -32 0 -41 -6z"/>
<path d="M994 596 c-3 -8 -4 -25 -2 -38 2 -18 9 -23 33 -23 28 0 30 3 30 35 0
31 -3 35 -28 38 -17 2 -29 -2 -33 -12z"/>
<path d="M2277 604 c-4 -4 -7 -72 -7 -151 l0 -143 35 0 36 0 -3 148 -3 147
-25 3 c-14 2 -29 0 -33 -4z"/>
<path d="M838 498 c-3 -29 -7 -34 -38 -38 -32 -5 -35 -8 -35 -40 l0 -35 110
-5 110 -5 3 -32 c3 -30 6 -33 40 -34 20 -1 49 0 63 1 29 1 46 -14 51 -50 3
-23 8 -25 73 -30 l70 -5 3 -33 3 -32 74 0 74 0 3 33 c3 28 7 32 35 35 25 3 34
9 39 28 10 40 -11 54 -82 54 -60 0 -64 2 -64 23 0 43 -9 46 -155 49 l-140 3
-11 35 c-11 35 -12 35 -80 40 l-69 5 -3 33 c-3 29 -6 32 -37 32 -31 0 -34 -3
-37 -32z"/>
<path d="M1894 296 c-3 -8 -4 -25 -2 -38 2 -19 9 -23 38 -23 33 0 35 2 35 35
0 32 -3 35 -33 38 -21 2 -34 -2 -38 -12z"/>
<path d="M2201 296 c-7 -9 -11 -38 -9 -73 l3 -58 35 0 35 0 3 64 c3 66 -4 81
-39 81 -9 0 -22 -6 -28 -14z"/>
<path d="M840 195 c0 -33 2 -35 35 -35 33 0 35 2 35 35 0 33 -2 35 -35 35 -33
0 -35 -2 -35 -35z"/>
<path d="M997 224 c-4 -4 -7 -20 -7 -36 l0 -29 73 3 72 3 0 30 c0 30 0 30 -65
33 -36 2 -69 0 -73 -4z"/>
<path d="M1970 195 l0 -36 73 3 72 3 0 30 0 30 -72 3 -73 3 0 -36z"/>
</g>
</svg>
